<?xml version="1.0" encoding="UTF-8"?><svg id="Layer_1" xmlns="http://www.w3.org/2000/svg" viewBox="0 0 1245.91 1560"><defs><style>.cls-1{fill:#9e3838;}</style></defs><path class="cls-1" d="M802.3,1560h-3.41c-11.33-112.16-15.44-242.04,65.39-331.56,43.21-47.86,105.86-68.58,150.95-113.13,17.25-17.04,28.89-37.68,32.34-61.88,6.62-46.53-28.98-80.72-61.07-109.26-107.71-95.8-239.16-162.46-354.6-248.13-49.28-36.57-189.8-134.91-110.17-205.2,53.36-47.1,143.73-56.3,210.53-65.59,43-5.98,86.03-10.54,128.65-19.03,82.95-16.52,165.54-44.96,232.78-97.69C1190.94,232.27,1230.79,119.63,1242.33,0h3.58c-11.58,119.97-51.43,233.09-148.84,309.72-67.47,53.08-150.45,81.68-233.82,98.09-43.1,8.48-86.6,12.86-130.09,18.61-67.64,8.94-158.98,17.51-213.55,64.38-81.15,69.71,60.77,168.49,109.93,204.75,116.34,85.8,248.57,152.4,357.51,247.96,32.18,28.23,68.18,61.98,61.87,108.46-3.27,24.08-14.7,44.57-31.91,61.47-45.06,44.23-107.67,64.29-150.69,112.07-81.22,90.19-75.82,221.9-64.01,334.48Z"/><path class="cls-1" d="M784.72,1560h-2.66c-8.9-110.89-6.03-231.9,73.98-318.23,44.44-47.95,108.44-72.43,151.83-120.71,16.92-18.83,29.12-42.24,31.45-67.76,3.78-41.55-25.77-74.27-53.66-101.5-100.99-98.61-230.67-165.41-342.52-250.46-50.74-38.58-185.79-135.72-108.81-208.28,51.78-48.81,140.5-59.68,206.87-71.09,37.05-6.37,74.11-12.73,110.74-21.26,76.61-17.85,152.61-45.2,215.7-93.35C1166.26,232.09,1207.13,120.2,1218.54,0h4.58c-11.47,120.33-52.39,232.46-151.21,307.76-63.36,48.28-139.75,75.57-216.75,93.05-37.06,8.41-74.55,14.45-112.04,20.58-67.26,10.99-157.15,21.53-210.11,70.2-78.57,72.2,57.62,170.01,108.42,208.52,112.71,85.45,243.21,152.37,345.38,251.06,27.99,27.04,57.9,59.52,54.29,101.06-2.21,25.41-14.26,48.66-31.2,67.31-43.51,47.92-107.65,71.66-152.06,119.46-80.68,86.83-82.44,209.62-73.12,321Z"/><path class="cls-1" d="M771.13,1560h-2.02c-6.84-110.05,2.39-223.11,81.22-307.25,43.04-45.94,102.2-74.24,143.23-121.84,17.42-20.21,30.8-44.94,33.89-71.81,4.91-42.67-23.63-77.05-51.89-105.78-91.34-92.88-210.25-156.87-313.8-234.67-50.66-38.06-191.01-134.38-123.91-211.3,44.92-51.5,129.83-62.83,191.87-77.26,30.35-7.06,60.64-14.74,90.73-22.85,75.76-20.43,151.01-47.8,214.3-95.37C1135.92,235.8,1178.32,122.81,1189.58,0h5.42c-11.25,121.82-53.07,234.27-153.22,310.07-62.99,47.67-138.14,75.12-213.87,95.01-29.09,7.64-58.43,14.68-87.78,21.31-64.84,14.65-147.97,24.47-198.26,73.46-75.52,73.57,56.34,169.24,107.82,208.67,109.17,83.62,237.96,149.88,333.34,250.19,27.32,28.73,52.45,61.86,46.08,103.42-4.05,26.41-17.44,49.97-35.13,69.59-41.85,46.4-100.59,73.95-143.35,119.85-78.62,84.4-86.66,198.57-79.49,308.44Z"/><path class="cls-1" d="M760.87,1560h-1.51c-4.73-101.74,6.84-202.7,74.06-283.54,42.05-50.57,100.68-83.96,142.46-134.43,17.87-21.58,31.91-46.92,36.55-74.85,7.05-42.41-16.31-76.56-43.94-106.69-85.24-92.93-202.21-155.23-302.47-230.03-50.52-37.7-187.48-130.47-123.89-207.5,42.17-51.08,119.01-59.78,177.64-78.72,27.8-8.98,55.36-19.32,83.03-28.77,75.53-25.8,150.36-57.09,212-109.04C1107.8,228.08,1146.03,118.31,1156.36,0h6.11c-10.33,117.21-48.04,226.23-140.05,304.06-61.34,51.89-136.05,83.12-211.58,108.09-28.07,9.28-56.19,19.04-84.47,27.65-59.7,18.16-133.86,27.42-179.76,74.66-71.94,74.03,56.75,166.49,108.12,205.64,100.81,76.82,216.41,139.26,306.13,229.74,28.75,28.99,59.06,64.7,55.63,108.07-2.18,27.68-15.71,54.49-32.43,76.11-38.91,50.32-97.09,82.31-139.8,129.23-75.29,82.71-88.7,188.79-83.39,296.75Z"/><path class="cls-1" d="M753.25,1560c-.46,0-.68,0-1.12,0-3.29-98.43,11.94-192.17,74.43-271.05,41.06-51.84,97.57-89.96,136.13-143.75,16.85-23.5,30.46-51.1,34.06-80.12,5.32-42.9-19.09-77.67-47.23-107.82-83.06-88.99-195.56-148.3-292.47-220.38-46.85-34.85-162.8-112.56-119.81-185.35,31.66-53.59,104.76-61.44,156.21-83.08,26.41-11.1,51.85-24.95,78.23-36.32,73.25-31.57,146.29-64.77,206.78-118C1071.43,232.33,1109.86,120.83,1119.79,0c2.67,0,3.99,0,6.63,0-10.01,120.5-48.5,231.75-141.7,312.9-60.8,52.94-134.22,85.7-207.97,116.2-26.71,11.05-52.67,24.27-79.44,35.01-52.7,21.13-126.67,29.31-159.7,82.98-44.82,72.83,72.44,152.08,119.3,187.11,97.69,73.01,211.07,132.93,295.1,222.6,28.24,30.14,53.15,65.02,47.76,108.06-3.61,28.88-17.34,56.25-34.34,79.46-39.08,53.34-96.13,90.63-137.48,142.21-63.53,79.26-78.24,174.29-74.71,273.47Z"/><path class="cls-1" d="M747.59,1560h-.84c-2.1-95.5,16.45-183.17,74.31-260.67,40.12-53.73,94.22-97.13,128.7-155.05,13.36-22.45,23.85-47.34,27.87-73.29,6.57-42.39-12.36-76.11-39.93-107.25-77.29-87.29-187.59-143.35-281.27-210.62-45.94-32.98-160.03-105.84-121.22-177.33,28.01-51.61,93.72-57.05,139.55-82.81,24.68-13.87,47.48-31.29,72.73-44.8,66.73-35.71,133.95-70.8,190.17-122.39C1031.77,239.45,1071.12,124.98,1080.77,0h7c-9.74,124.55-49.12,238.67-143.47,324.21-56.5,51.23-124.01,85.8-191.25,120.44-25.49,13.13-48.86,29.91-73.88,43.35-47.05,25.27-113.9,30.96-143.09,82.77-40.47,71.84,74.4,145.98,120.61,179.4,94.46,68.31,205.67,125.09,283.9,213.18,27.66,31.15,47.08,65.04,40.37,107.57-4.07,25.81-14.69,50.5-28.22,72.69-35.05,57.48-89.84,100-130.3,153.39-59,77.86-77.15,166.68-74.86,263Z"/><path class="cls-1" d="M743.19,1560h-.69c-1.12-91.44,19.78-173.42,71.66-249.21,35.96-52.53,82.01-98.29,113.08-154.15,33.44-60.14,46.37-123.93.92-181.41-67.62-85.53-175.64-138.19-264.46-198.09-46.37-31.27-158.89-95.35-136.43-166.91,4.64-14.79,15.99-26.94,27.48-36.73,11.47-9.32,23.77-17.37,36.91-24.16,17.5-9.13,35.51-17.1,54.04-23.91,22.91-16.35,42.11-37.93,66.05-53.96,63.61-42.6,129.9-80.35,185.21-134.14C990.97,245.91,1030.86,128.73,1040.22,0h7.2c-9.42,128.23-49.31,245.02-143.55,335.55-55.56,53.37-122.05,90.55-186.27,132-24.15,15.59-43.99,36.47-67.21,52.4-18.97,6.77-37.44,14.72-55.4,23.83-13.49,6.78-26.15,14.84-37.99,24.19-11.83,9.79-23.65,21.98-28.63,36.94-24.03,72.1,89.39,137.52,135.99,169.24,89.61,60.99,198.56,114.42,267.08,200.82,45.63,57.55,33.21,121-1.08,181-31.66,55.41-78.42,100.39-114.76,152.55-53.07,76.17-73.69,159.16-72.41,251.48Z"/><path class="cls-1" d="M739.39,1560h-.66c-.26-87.07,22.42-164.16,68.06-238.09,34.04-55.14,76.24-105.71,103.57-164.83,29.18-63.12,41.53-128.51-5.86-185.79-66.15-79.97-169.1-127.76-254.79-183.04-44.49-28.71-150.09-86.58-127.43-154.66,13.08-39.3,56.87-51.8,87.36-72.45,24.45-16.56,41.97-45.34,65.28-64.55,60-49.46,125.82-90.69,180.3-146.82C949.14,252.96,989.87,132.85,999.06,0h7.24c-9.22,132.29-49.89,251.99-144.03,347.88-54.71,55.73-120.75,96.09-181.31,144.59-23.51,18.83-41.88,46.91-66.61,63-31.44,20.46-76.41,32.97-90.52,72.62-24.41,68.59,82,127.84,126.71,157.02,86.49,56.43,190.37,105.05,257.42,185.91,47.6,57.41,35.76,122.39,5.72,185.49-27.93,58.67-70.89,108.47-105.36,163.16-46.86,74.35-69.33,152.34-68.93,240.33Z"/><path class="cls-1" d="M735.5,1560h-.75c.58-82.41,24.49-155.45,63.87-227.22,31.94-58.21,69.79-113.63,93.55-175.98,24.89-65.31,36.87-132.52-12.24-189.25-59.66-68.92-149.33-110.4-226.33-156.24-44.97-26.77-148.96-76.46-141.36-142.53,3.95-34.39,37.94-54.03,63.22-71.81,25.68-18.07,39.42-51.75,62.14-74.75,55.73-56.4,121.7-101.29,175.55-159.87C907.08,260.19,948.99,137.13,958.17,0h7.12c-9.19,136.58-50.98,259.22-145.1,360.54-54.01,58.15-120.02,102.34-176.49,157.65-23.09,22.62-37.55,55.65-63.62,73.26-26.04,17.58-61.4,37.16-66.26,72.01-9.28,66.65,95.85,117.79,140.86,144.92,77.79,46.89,168.32,89.16,228.84,158.91,49.37,56.89,37.89,123.6,12.17,189.01-24.34,61.91-63.01,116.56-95.4,174.27-40.56,72.27-64.37,146.05-64.8,229.43Z"/><path class="cls-1" d="M730.82,1560h-.95c2.89-148.95,98.33-263.29,141.74-400.33,20.47-64.61,34.92-134.94-12.56-190.82-54.7-64.38-139.48-101.43-211.92-141.45-45.31-25.03-142.09-66.63-144.15-129.32-1.04-31.67,24.95-51.77,45.95-70.88,23.36-21.25,32.85-57.75,53.87-83.02,51.66-62.12,117.55-110.98,170.64-171.98C866.39,265.4,909.17,140.26,918.47,0h6.85c-9.27,139.72-51.86,264.52-144.96,370.55-53.2,60.59-119.07,108.77-171.45,169.93-21.28,24.84-31.5,60.98-55.3,81.59-21.75,18.84-49.17,38.85-48.98,71.01.37,63.28,98.5,106.28,143.67,131.57,73.25,41.02,158.89,78.83,214.46,143.98,47.79,56.02,33.73,125.76,12.52,190.51-45.07,137.61-141.92,250.32-144.47,400.85Z"/><path class="cls-1" d="M724.69,1560h-1.28c5.45-142.69,93.25-265.24,127.79-401.1,16.7-65.7,31.17-138.24-17.46-193.54-52.39-59.57-132.75-92.1-201.78-127.61-45.16-23.23-134.45-59.19-139.37-119.64-2.76-33.99,23.64-47.87,38.89-73.15,6.17-10.23,7.39-28.51,12.49-40.03,8.08-18.25,19.22-35.09,31.29-50.91,51.8-67.88,119.32-122.21,172.41-189.21C832.52,257.74,871.68,135.4,880.88,0h6.41c-9.12,134.98-48.06,257.04-132.95,363.58-53.12,66.66-120.59,120.4-172.99,187.46-12.18,15.58-23.47,32.15-31.77,50.16-5.17,11.22-6.7,29.51-12.95,39.39-16,25.26-43.93,38.44-42.19,73.06,3.07,60.97,93.78,98.16,138.65,121.57,69.85,36.45,151.08,69.68,204.39,129.95,49.01,55.41,34.91,127.29,17.56,193.21-35.87,136.28-125.42,257.77-130.35,401.63Z"/><path class="cls-1" d="M716.41,1560h-1.73c2.89-65.84,28.28-129.68,50.35-190.97,24.45-67.91,49.08-136,63.86-206.81,13.48-64.57,29.67-140.92-16.51-195.88-47.06-56.01-122.49-84.9-186.79-115.53-47.43-22.59-128.1-52.34-143.27-109.8-8.23-31.19,10.66-47.49,20.22-74.22,4.87-13.62,4.91-29.39,9.98-43.41,7.05-19.49,17.22-37.68,28.78-54.82,48.6-72.06,116.58-129.38,169.7-198.03C795.79,260.94,836.43,137.53,846.3,0h5.82c-9.74,137.21-50.08,260.47-134.85,369.7-53.08,68.4-120.97,125.25-170.1,196.64-11.65,16.93-21.97,34.89-29.2,54.18-5.16,13.75-5.33,29.56-10.4,42.85-10.19,26.67-30.87,42.07-23.49,73.96,13.41,57.99,95.64,88.71,142.61,111.37,65.13,31.42,141.44,60.91,189.45,117.49,46.65,54.98,30.71,130.65,16.72,195.41-15.2,70.36-40.56,137.79-65.45,205.15-22.87,61.92-48.55,126.48-51,193.26Z"/><path class="cls-1" d="M705.31,1560c-.9,0-1.36,0-2.3,0,6.26-60.64,29.37-119.92,47.38-177.75,22.12-71.02,42.91-142.64,55.53-216.05,11.04-64.17,28.17-143.44-14.83-199.25-41.08-53.31-112.08-79.38-171.42-105.92-50.22-22.46-122.39-48.07-146.79-102.44-12.38-27.58-3.93-48.94,1.73-76.46,7.88-38.29,13.33-69.92,34.3-104.27,45.92-75.25,114.59-134.76,168.1-204.38C762.23,262.61,804.75,138.96,815.64,0h5.07c-10.69,138.77-52.85,262.43-137.95,373.19-53.41,69.51-121.95,128.7-168.29,203.47-21.15,34.13-26.19,65.47-35.04,103.31-6.39,27.33-16.7,47.82-4.97,75.97,22.89,54.91,96.48,81.08,146.2,103.53,60.15,27.15,132.11,53.65,174.15,107.4,43.54,55.67,26.62,134.3,15.19,198.57-12.97,72.95-34.4,143.97-56.91,214.45-18.65,58.42-42.27,118.57-47.8,180.11Z"/><path class="cls-1" d="M690.69,1560h-2.98c29.24-130.68,75.39-255.61,94.68-388.93,9.28-64.12,27.35-146.61-12.21-203.86-35.46-51.32-100.65-75.68-155.58-99.43-52.84-22.85-117.93-46.77-149.85-98.19-34.49-55.56-16.25-135.66,13.93-188.91,43.84-77.34,113.5-137.95,167.76-207.65C732.65,262.32,777.49,139.5,789.82,0h4.15c-12.04,139.48-56.45,262.53-142.43,373.39-54.1,69.76-123.56,130.27-167.72,207.32-29.54,51.55-50.2,132.68-17.75,187.48,30.74,51.92,96.93,75.96,149.35,98.69,55.68,24.15,121.94,48.72,158.4,100.31,40.21,56.9,22.28,138.89,12.75,202.94-11.23,75.52-29.27,149.86-49.75,223.35-15.39,55.24-35.13,110.16-46.12,166.51Z"/><path class="cls-1" d="M672.28,1560c-1.28,0-1.91,0-3.12,0,45.62-121.98,71.36-255.79,88.3-384.45,8.6-65.35,27.16-147.26-10.81-206.55-32.38-50.56-92.97-75.65-145.39-99.51-53.65-24.43-114.64-49.49-149.74-99.52-41.29-58.85-30.13-134.47,2.67-194.4,42.95-78.47,112.63-140.06,167.54-209.81C707.25,257.14,754.52,137.5,768.85,0h3.63c-13.96,138.25-60.89,258.77-147.02,367.91-54.91,69.58-124.87,130.83-167.87,209.13-32.68,59.51-43.58,135.57-2.49,193.99,35.18,50.02,96.6,74.64,150.43,98.63,52.55,23.42,113.58,48.06,145.96,98.63,37.8,59.03,19.23,141.66,10.6,206.7-17.18,129.37-44.89,262.14-89.82,385Z"/><path class="cls-1" d="M656.65,1560c-.92,0-1.37,0-2.24,0,19.36-48.98,29.11-102.79,39.52-154.19,15.18-74.94,27.27-150.56,36.19-226.5,7.87-67,25.8-145.28-12.03-206.27-31.61-50.95-88.99-79.06-140.14-106.17-52.11-27.62-109.92-55.66-143.81-106.18-41.07-61.21-29.38-134.66,3.63-196.69,42-78.89,109.44-141.99,163.72-212.12C682.89,246.69,731.13,132.33,746.98,0h3.99c-15.65,133.33-63.83,248.66-146.04,354.51-54.47,70.13-122.37,133.01-164.61,211.89-33.04,61.69-44.74,135.49-3.47,196.29,34.2,50.4,92.64,77.8,145.08,104.82,51.44,26.5,109.45,53.96,141.29,104.82,38,60.68,19.87,139.54,11.81,206.25-9.2,76.13-21.86,151.89-37.68,226.92-10.88,51.58-21.29,105.28-40.7,154.51Z"/><path class="cls-1" d="M645.72,1560h-1.5c18.06-47.8,23.64-101.91,31.02-152.12,10.93-74.34,19.25-149.08,26.1-223.89,6.27-68.42,22.67-144.02-13.31-206.9-29.65-51.82-82.97-84.1-131.95-115.21-49.65-31.54-103.43-63.72-134.94-115.21-38.84-63.46-27.99-135.21,4.51-198.97,40.01-78.52,104.29-142.42,156.98-212.2C658.94,234.45,706.83,126.02,723.28,0h4.28c-16.41,127.2-64.44,236.71-141.7,338.54-53.03,69.89-117.92,133.7-158.35,212.33-32.63,63.48-43.72,135.49-4.36,198.57,31.99,51.28,86.54,82.68,136.69,113.47,49.43,30.35,103.51,61.84,133.58,113.47,36.42,62.54,19.68,138.54,13.08,206.73-7.27,75.02-16.32,149.92-28.06,224.38-7.95,50.44-14.34,104.52-32.72,152.51Z"/><path class="cls-1" d="M638.65,1560h-.91c15.38-47.03,16.15-100.8,19.95-149.69,5.71-73.57,9.61-147.28,13.71-220.95,3.87-69.56,18.14-143.45-14.62-208.24-26.89-53.18-75.44-90.26-121.34-126.13-46.34-36.21-95.33-73.19-123.66-126.13-35.05-65.51-25.99-136.07,5.3-201.22,37.22-77.48,97.53-141.63,147.85-210.49C635.32,220.82,681.8,118.8,698.07,0h4.52c-16.36,120.13-63.15,223.3-134.62,320.49-50.78,69.05-111.85,133.2-149.6,210.9-31.55,64.93-40.98,135.66-5.17,200.83,28.93,52.66,78.81,88.75,125.79,124.1,46.51,34.99,95.94,71.19,123.36,124.1,33.41,64.46,18.73,138.58,14.38,207.96-4.63,73.87-9.34,147.77-16.03,221.49-4.46,49.12-6.13,102.99-22.06,150.13Z"/><path class="cls-1" d="M634.6,1560h-.46c11.17-46.92,7.06-99.21,6.9-147.01-.25-72.6-1.32-145.2-.47-217.8.82-70.36,12.66-143.57-15.96-210.13-23.64-54.96-66.92-97.24-108.89-138.45-42.2-41.44-85.87-83.64-110.52-138.45-30.21-67.17-23.45-137.24,6.04-203.45,33.82-75.94,89.55-139.9,136.89-207.43C611.98,206.16,656.23,110.91,671.71,0h4.7c-15.65,112.34-60.35,208.8-125.39,300.86-47.89,67.79-104.47,131.8-138.92,208.04-29.85,66.05-37.03,136.15-5.92,203.06,25.32,54.46,69.96,95.72,112.94,136.2,42.72,40.24,86.96,81.59,111.19,136.21,29.4,66.26,17.12,139.52,15.72,209.77-1.45,72.78-1.28,145.58-2.13,218.36-.56,48.02,2.61,100.52-9.31,147.49Z"/><path class="cls-1" d="M632.74,1560h-.17c6.47-46.79-3.17-97.61-7.56-144.21-6.73-71.4-13.14-142.85-15.92-214.54-2.75-70.91,6.74-144.27-17.33-212.39-20.19-57.14-57.84-104.82-95.12-151.67-37.37-46.98-75.29-94.61-96.07-151.68-24.88-68.3-20.42-138.75,6.74-205.65,30.05-74.02,80.7-137.48,124.62-203.46C588.87,190.86,630.3,102.56,644.52,0h4.82c-14.46,104.05-56.42,193.58-114.61,280.13-44.54,66.25-96.11,129.83-126.84,204.2-27.6,66.8-32.46,137.14-6.62,205.27,21.48,56.65,60.42,103.31,98.68,149.3,38.13,45.84,76.84,92.58,97.61,149.31,24.85,67.89,14.99,141.13,17.09,211.98,2.12,71.83,7.57,143.48,13.14,215.11,3.64,46.8,12.28,97.9,4.94,144.71Z"/><path class="cls-1" d="M632.2,1560h-.02c1.09-46.83-14.05-95.8-22.84-141.42-13.48-69.97-25.47-140.28-32.11-211.27-6.68-71.44.72-145.18-18.71-214.85-16.65-59.71-48.6-112.8-80.57-165.32-70.63-116-122.82-237.08-73.44-373.11,26.1-71.88,71.37-134.67,111.59-199.01C565.94,175.29,604.18,93.97,616.86,0h4.88c-12.96,95.49-51.78,178.03-102.88,258.79-40.88,64.63-87.12,127.54-113.91,199.81-50.53,136.28,3.04,255.76,76.26,370.33,32.94,51.54,65.88,103.67,83.16,162.91,20.24,69.39,12.5,143.08,18.47,214.41,5.94,71.09,16.94,141.61,29.23,211.84,8.01,45.78,22.19,95.08,20.12,141.9Z"/><path class="cls-1" d="M632.16,1560h-.02c-4.62-46.9-25.07-93.85-38.36-138.74-20.23-68.34-37.92-137.57-48.51-208.12-10.83-72.13-5.04-145.99-20.09-217.34-13.21-62.62-39.45-120.92-65.81-178.88-56.08-123.33-100.36-253.55-57.33-388.78C450.18,276.9,568.09,162.11,589.06,0h4.88c-11.33,86.86-46.8,162.52-90.79,237.34-37.08,63.06-77.81,125.26-100.66,195.32-44.12,135.29,1.57,263.92,60.15,386.06,27.35,57.03,54.59,114.42,68.4,176.52,15.8,71.04,9.76,144.92,19.85,216.91,9.89,70.6,26.58,140.03,45.63,208.66,12.49,45,32.04,92.31,35.64,139.2Z"/><path class="cls-1" d="M631.78,1560h-.17c-10.2-46.91-35.76-91.98-53.54-136.31-26.71-66.6-50.07-134.81-64.61-205.19-15.08-73.02-10.36-146.44-21.47-219.66-9.97-65.72-30.6-128.94-51.36-191.88-42.67-129.37-78.6-268.25-41.53-403.83C437.8,261.67,543.16,148.34,561.46,0h4.82c-18.73,150.66-126.32,264.28-166.58,407.42-38.08,135.4-.69,272.9,44.26,401.25,21.74,62.09,43.34,124.49,53.85,189.66,11.76,72.89,6.89,146.42,21.23,219.27,13.85,70.38,36.22,138.77,61.82,205.68,17,44.42,41.67,89.8,50.92,136.72Z"/><path class="cls-1" d="M630.21,1560h-.46c-15.26-46.93-45.67-90.37-67.79-134.25-32.7-64.87-61.55-132.13-79.87-202.58-19.22-73.93-15.17-146.53-22.83-221.65-7.03-68.88-22.45-136.42-37.78-203.82-30.67-134.84-58.34-280.37-26.56-417.76C425.55,247.48,518.12,136.15,534.4,0h4.7c-16.57,138.16-111.38,249.88-143.32,383.83-32.66,136.98-3.54,281.49,29.11,415.42,16.25,66.67,32.57,133.48,40.08,201.82,8.22,74.8,4.07,147.55,22.59,221.34,17.67,70.42,45.58,137.84,77.27,203.01,21.38,43.96,50.95,87.66,65.38,134.58Z"/><path class="cls-1" d="M626.6,1560h-.91c-19.28-47.09-54.43-89.24-80.54-132.68-38.02-63.27-72.01-129.67-93.78-200.42-22.95-74.57-19.34-146.44-24.17-223.15-4.53-71.84-15.23-143.05-25.61-214.22-20.39-139.83-40.23-289.81-12.96-430.08,12.52-64.41,36.99-125.29,62.64-185.4C475.06,118.33,502.3,61.07,508.21,0h4.53c-5.93,62.31-33.73,120.55-58.41,177.2-26.2,60.15-51.45,121.02-64.4,185.62-27.99,139.71-6.83,289.06,15.24,428.05,11.2,70.56,22.69,141.18,27.62,212.52,5.29,76.47,1.6,148.44,23.94,222.93,21.2,70.68,54.31,137.23,91.45,200.76,25.44,43.52,59.76,85.87,78.43,132.91Z"/><path class="cls-1" d="M620.13,1560h-1.5c-20.97-47.57-61.94-89.12-91.19-131.71-42.53-61.91-81.11-127.57-105.8-198.8-25.88-74.66-22.74-146.32-25.48-223.96-2.63-74.35-9.27-148.47-15.39-222.59-6.12-74.06-11.72-148.23-12.28-222.58-.55-71.86-.74-146.66,11.02-217.69,10.56-63.76,31.14-124.96,53.9-185.25C452.62,106.51,476.86,54.58,483.24,0h4.29c-6.21,55.66-30.98,108.47-50.91,160.19-23.21,60.22-44.42,121.31-55.27,185.13-12.04,70.84-11.78,145.68-10.87,217.38.93,73.95,7.23,147.68,14.03,221.28,6.81,73.66,14.12,147.33,17.03,221.28,3.05,77.54-.19,149.18,25.25,223.87,24.22,71.13,62.05,136.92,103.85,199.04,28.94,43.02,67.94,84.41,89.5,131.83Z"/><path class="cls-1" d="M609.94,1560c-.87,0-1.31,0-2.24,0-21.59-48.3-67.53-89.69-99.18-131.47-46.11-60.87-88.54-125.98-115.42-197.84-27.69-74.02-25.2-146.28-26.74-223.91-1.52-76.17-4.92-152.29-7.68-228.43-5.34-147.45-13.63-301.42,8.02-447.87,9.45-63.93,26.96-126.15,47.63-187.27C430.21,96.23,451.4,49.12,459.84,0h3.99c-7.94,50-29.67,97.92-46.05,145.52-20.97,60.92-38.96,122.91-48.53,186.73-21.9,146-12.93,299.79-6.58,446.75,3.28,75.85,7.18,151.69,8.83,227.6,1.68,77.71-.95,149.8,26.52,223.99,26.56,71.74,68.37,136.93,113.93,197.95,31.31,41.94,76.36,83.3,98,131.45Z"/><path class="cls-1" d="M595.19,1560h-3.13c-19.78-49.16-71.17-91.52-103.92-132.08-48.65-60.24-94-125.02-122.12-197.65-28.09-72.56-26.55-146.3-27.96-222.83-1.42-77.08-2.57-154.16-3.01-231.25-.84-149.49-6.85-304.03,14.35-452.36C365.54,210.97,406.15,108.32,438.33,0h3.63c-29.27,109.33-72.98,211.33-89.15,324.56-21.14,148.09-14.94,302.59-13.47,451.82.76,77,2.23,154,3.58,231,1.35,76.8-.38,150.22,27.75,223.1,27.98,72.49,72.89,137.3,121.18,197.62,32.68,40.83,83.03,82.89,103.35,131.91Z"/><path class="cls-1" d="M575.57,1560h-3.76c-21.45-50.15-67.28-93.04-100.04-135.86-46.43-60.69-89.63-124.79-119.47-195.45-30.26-71.66-36.31-143.1-40.41-219.85-4.07-76.08-6.24-152.26-6.6-228.45-.71-150.59.14-305.29,26.98-453.88,11.88-65.75,28.88-130.39,47.95-194.39C393.12,88.84,410.74,44.9,417.12,0h4.03c-8.7,44.65-25.95,87.98-39.04,131.46-19.22,63.84-35.84,128.48-47.19,194.22-25.63,148.54-24.9,303.23-24.43,453.56.24,76.39,2.04,152.78,5.47,229.1,3.44,76.62,7.78,148.69,37.55,220.46,29.54,71.23,73.47,135.51,120.65,196.09,32.94,42.28,80.36,85.05,101.4,135.12Z"/><path class="cls-1" d="M553.27,1560h-4.14c-22-49.89-59.07-94.04-89.37-139-41.08-60.96-79.59-123.85-110.11-190.83-62.54-137.28-67.23-292.78-69.93-441.75-2.76-152.75,6.38-307.37,39-456.9,14.35-65.78,32.9-130.46,50.33-195.46C380.26,94.33,399.17,43.88,391.62,0h4.78c5.11,44.29-13.81,93.37-25.33,135.35-17.8,64.82-36.15,129.48-50.14,195.26-31.75,149.29-39.5,303.94-37.18,456.24,2.26,148.33,4.07,305.73,65.88,442.83,30.51,67.67,69.91,130.81,112.06,191.75,30.89,44.66,69.5,88.55,91.59,138.57Z"/><path class="cls-1" d="M528.98,1560h-4.45c-47.12-112.55-118.66-215.06-171.03-325.42-15.24-32.12-29.72-64.61-43.27-97.48-14.87-36.06-20.24-76.64-26.75-114.99-12.57-73.93-20.21-148.7-23.07-223.64-5.93-155.75,10.54-310.24,47.23-461.62,15.93-65.71,35.11-130.67,49.74-196.69C366.54,98.83,383.36,40.37,362.29,0h5.4c18.89,40.93,1.26,98.33-8.23,139.43-15.19,65.85-34.33,130.73-50.03,196.46-36.09,151-51.33,305.51-46.03,460.69,2.56,74.97,9.64,149.8,21.38,223.89,6.08,38.39,10.87,79.05,25.17,115.31,13.05,33.08,27.27,65.69,42.45,97.84,30.03,63.61,64.05,125.17,99.37,185.97,26.69,45.94,56.39,91.37,77.21,140.41Z"/><path class="cls-1" d="M503.07,1560h-4.7c-40.08-106.93-84.38-211.99-133.8-314.96-32.91-68.57-65.21-131.86-83.41-206.17-17.67-72.14-29.04-145.83-34.22-219.92-11.04-157.9,10.13-311.76,48.78-464.63,16.59-65.62,35.56-130.96,47.53-197.64C351.78,109.16,364.91,40.56,329.86,0h5.89c32.99,41,18.34,109.2,9.5,155.87-12.6,66.55-31.62,131.8-48.09,197.44-38.23,152.38-58.33,306.21-48.13,463.47,4.81,74.06,15.52,147.77,32.3,220.07,8.91,38.39,17.93,77.08,35.39,112.56,15.44,31.38,30.75,62.81,45.88,94.33,49.89,103.9,99.18,208.58,140.46,316.26Z"/><path class="cls-1" d="M475.92,1560h-4.87c-14.29-44.99-21.74-91.85-33.09-137.61-14.13-56.97-33.34-112.37-58.17-165.58-31.59-67.7-71.35-128.16-94.79-199.63-24.89-75.88-41.04-154.59-48.36-234.11-14.74-160.14,13.11-312.47,53.08-466.82,16.78-64.78,34.8-130.14,42.42-196.79C338.21,106.29,340.54,37.83,295.1,0h6.25c43.65,38.21,39.33,106.66,32.79,158.63-8.38,66.54-26.57,131.76-43.32,196.55-39.77,153.78-66.58,306.08-52.75,465.55,6.89,79.42,22.3,158.12,46.18,234.18,22.55,71.82,61.14,132.71,92.91,200.39,46.28,98.58,65.1,202.25,98.76,304.7Z"/><path class="cls-1" d="M447.9,1560h-4.99c-11.13-43.8-7.64-89.37-9.69-134.08-2.67-58.11-15.38-113.91-39.85-166.82-30.88-66.76-75.9-123.81-103.67-192.5-29.75-73.57-49.77-151-59.46-229.76-9.75-79.24-9.01-159.61,1.2-238.76,10.69-82.81,34.34-162.59,54.89-243.28C311.96,254.14,368.45,71.95,258.74,0h6.47c106.26,72.36,47.16,255.13,21.95,353.67-40.9,159.88-75.55,314.47-56.01,480.7,9.24,78.63,28.48,156.03,57.24,229.8,26.92,69.05,70.75,126.55,101.8,193.23,24.87,53.41,39.02,109.75,43.9,168.36,3.73,44.77,2.21,90.49,13.8,134.24Z"/><path class="cls-1" d="M419.38,1560h-5.03c-8.35-44.31,5.8-87.55,13.92-130.71,9.95-52.81,7.62-103.92-13.02-154.07-14.21-34.51-34.91-65.93-57.62-95.37-24.44-31.67-43.69-67.12-61.05-103.15-34.35-71.28-58.24-147.46-70.36-225.66-12.22-78.81-12.43-159.21-2.23-238.26,10.75-83.25,36.19-162.79,56.45-243.94C310.57,248.19,349.24,77.65,221.54,0h6.57c124.61,78.02,82.63,249.49,52.95,367.66-20.32,80.89-45.32,160.31-55.98,243.32-10.11,78.81-10.03,158.93,1.71,237.55,11.66,78.04,34.76,154.22,68.16,225.7,16.83,36.02,35.43,71.64,59.43,103.37,22.51,29.77,43,61.4,57.44,95.94,21.03,50.31,25.09,102.03,17.29,155.6-6.31,43.36-18.51,86.9-9.73,130.86Z"/><path class="cls-1" d="M390.75,1560h-5.02c-6.26-49.9,22.37-93.25,41.21-137.06,20.52-47.71,26.04-95.39,5.97-144.45-14.08-34.43-37.11-63.51-60.98-91.59-26.04-30.64-47.93-65.03-67.55-100.08-38.59-68.94-66.27-143.81-80.78-221.51-15.85-84.84-15.85-172.04-2.96-257.27,12.35-81.66,39.9-159.45,58.65-239.64C310.58,234.7,325.27,73.99,184.22,0h6.54c138.51,74.35,119.95,236.06,89.01,367.16-18.87,79.95-46,157.65-58.24,239.11-12.77,84.98-12.86,171.89,2.48,256.55,14.05,77.54,40.95,152.43,78.64,221.6,19.1,35.06,40.38,69.6,65.96,100.32,23.66,28.4,46.41,57.67,60.69,92.12,20.3,48.97,16.74,97.23-1.9,145.92-16.94,44.25-43.34,87.96-36.64,137.23Z"/><path class="cls-1" d="M362.38,1560h-4.93c-7.1-102.51,132.63-155.03,98.85-264.58-9.87-32-31.2-59.91-53.48-84.29-27.99-30.62-54.6-61.04-78.06-95.4-47.26-69.22-82.51-146.46-101.43-228.21-19.1-82.54-21.29-168.2-9.86-252.01,11.97-87.81,43.56-170.2,62.88-256.28,14.72-65.59,24.86-135.11,13.19-202.03C274.9,93.33,223.63,35.46,147.56,0h6.37c74.84,35.53,123.82,93.52,137.27,176.25,10.88,66.92.3,136.22-14.52,201.68-19.43,85.82-50.54,168.14-62.39,255.72-11.31,83.61-9.23,169.03,9.38,251.46,18.43,81.61,52.83,158.92,99.18,228.46,40.06,60.1,107.71,110.31,129.96,180.48,34.49,108.74-98.4,164.2-90.43,265.95Z"/><path class="cls-1" d="M334.64,1560h-4.78c-2.58-108.38,177.89-145.81,144.78-260.48-9.01-31.2-31.96-57.65-54.51-80.02-33.71-33.44-66.23-66.45-94.65-104.69-49.43-66.51-86.79-141.78-106.66-222.38-20.09-81.47-21.92-166.4-9.72-249.23,12.79-86.83,46.23-167.67,64.91-253.02,15.16-69.25,23.34-143.45,5.27-212.98C256.57,89.87,193.2,34.3,112.28,0h6.07c79.74,34.29,141.01,89.91,162.48,176.25,17.3,69.54,8.64,143.51-6.57,212.57-18.74,85.11-51.67,165.9-64.3,252.54-12.06,82.69-10.27,167.43,9.4,248.83,19.45,80.49,56.04,155.89,104.67,222.74,27.87,38.31,59.77,71.55,93.03,105.06,22.47,22.64,45.06,49.24,54.31,80.44,33.83,114.15-140.02,154.15-136.72,261.57Z"/><path class="cls-1" d="M307.91,1560h-4.57c.51-63.99,69.12-103.28,114.01-136.87,38.27-28.64,89.37-66.63,73.9-121.3-8.66-30.6-33.65-55.82-56.54-76.46-35.49-31.99-70.44-63.03-101.29-99.74-52.57-62.55-93.75-134.6-116.54-213.28-24.59-84.93-26.85-174.58-12.76-261.56,13.9-85.81,49.35-164.98,67.84-249.5,14.98-68.48,21.08-141.56,1.75-209.85C246.24,94.36,169.83,35.63,79.14,0h5.64c89.6,35.61,163.78,94.32,190.18,190.41,18.75,68.23,12.19,141.19-2.77,209.45-18.47,84.32-53.36,163.48-67.05,249.12-13.89,86.91-11.61,176.43,12.58,261.35,22.4,78.64,62.86,150.9,114.73,213.86,30.32,36.81,64.7,68.1,99.75,100.18,22.8,20.87,47.35,46.19,56.17,76.77,33.83,117.3-180.09,145.45-180.47,258.86Z"/><path class="cls-1" d="M282.56,1560h-4.28c1.53-67.61,79.28-105.94,129.01-136.19,40.37-24.56,113.64-61.15,98.36-119.89-7.69-29.55-33.71-53.44-56.08-72.33-36.55-30.85-74.12-59.03-107.4-93.68-58.89-61.31-106.17-133.91-131.77-215.36-25.66-81.66-28.31-168.49-14.54-252.62,14.77-90.23,55.17-171.98,74.73-260.7,15.84-71.86,19.58-149.01-5.75-219.21C229.31,91.54,143.31,34.95,48.88,0h5.08c93.97,35.1,178.55,92.21,212.58,190.78,22.98,66.56,20.19,139.14,6.37,207.3-17.88,88.16-57.86,169.45-73.72,258.32-15.2,85.22-14.14,173.47,10.28,256.9,24.13,82.43,70.05,156.48,128.17,219.25,32.58,35.19,69.16,64.48,105.87,95.07,23.3,19.42,50.18,43.67,59.18,73.86,17.59,59-52.24,96.48-93.05,122.1-49.05,30.81-125.65,69.29-127.08,136.41Z"/><path class="cls-1" d="M258.97,1560h-3.93c1.43-72.24,88.52-110.82,142.7-139.17,39.9-20.88,129.29-54.92,119.22-113.82-5.85-34.26-40.98-61.17-66.74-80.49-38.52-28.9-77.55-55.75-112.63-89-60.64-57.49-110.35-126.91-137.09-206.58-28.78-85.75-28.91-177.76-10.71-265.74,18.13-87.68,61.42-166.68,80.44-253.83,15.77-72.26,16.67-149.68-12.06-218.94C216.15,91.13,121.41,35.1,22.25,0h4.38c98.14,34.96,191.27,90.9,232.35,191.37,28.29,69.19,27.14,146.38,11.58,218.45-18.79,87.02-61.37,166.14-79.1,253.71-17.85,88.15-17.46,180.18,11.06,266.07,26.49,79.78,75.61,149.63,135.75,207.72,34.61,33.43,73.15,60.59,111.3,89.62,25.62,19.5,60.01,46.42,65.91,80.57,10.15,58.73-76.6,92.84-116.46,114.28-53.32,28.67-138.52,66.9-140.06,138.22Z"/><path class="cls-1" d="M237.51,1560h-3.52c-.09-81.28,103.91-121.4,164.45-150.1,38.99-18.49,136.22-51.49,123.25-110.42-7.61-34.6-46.44-60.76-73.32-79.28-39.64-27.3-80.35-51.77-117.19-83.02-65.53-55.59-120.11-124.97-147.41-207.24-27.73-83.55-24.94-173.25-4.63-258.11,20.65-86.26,66.93-162.75,87.97-248.49,17.43-71.06,18.66-147.51-8.95-216.23C213.68,96.43,107.6,36.87,0,0h3.56c106.69,36.71,211.28,96.14,255.05,206,27.33,68.6,26.06,144.81,8.98,215.74-20.63,85.66-66.13,162.35-86.27,248.52-19.91,85.16-22.26,175,5.33,258.75,27.17,82.48,81.23,152.45,146.39,208.77,36.41,31.48,76.67,56.3,115.99,83.75,26.66,18.6,64.69,44.77,72.16,79.18,12.76,58.7-82.27,91.76-121.3,110.52-59.76,28.73-162.06,68.57-162.37,148.76Z"/></svg>