<?xml version="1.0" encoding="UTF-8"?><svg id="Layer_1" xmlns="http://www.w3.org/2000/svg" viewBox="0 0 1336 1690.13"><defs><style>.cls-1{fill:#9e3838;}</style></defs><path class="cls-1" d="M376.93,37.05l3.66-.22c19.25,116.04,31.88,250.99-49.13,349.46-43.3,52.64-109.17,78.3-154.71,127.62-17.42,18.87-28.6,41.12-30.76,66.53-4.15,48.87,36.19,82.15,72.4,109.77,121.56,92.71,266.73,153.55,395.95,235.21,55.16,34.86,212.06,128.08,131.12,206.46-54.24,52.52-150.56,67.99-221.6,82.01-45.73,9.03-91.59,16.59-136.75,28.2-87.9,22.61-174.67,57.6-243.43,116.89C44.24,1444.72,8.63,1564.6,3.84,1689.9l-3.84.23c4.82-125.66,40.4-246.03,139.99-332.17,68.99-59.66,156.16-94.85,244.52-117.36,45.68-11.64,92.04-19.04,138.32-27.86,71.97-13.72,169.37-28.59,224.92-80.95,82.6-77.86-75.83-171.46-130.84-206-130.18-81.74-276.19-142.46-399.06-234.85-36.3-27.29-77.03-60.09-73.21-108.89,1.98-25.29,12.94-47.36,30.33-66.08,45.52-48.98,111.38-73.96,154.5-126.51,81.39-99.2,67.26-235.97,47.47-352.41Z"/><path class="cls-1" d="M395.79,35.91l2.85-.17c16.57,114.87,21.15,241.05-59.19,336.14-44.62,52.82-111.69,82.48-155.17,135.57-16.95,20.7-28.55,45.87-29.43,72.6-1.43,43.5,32.33,75.64,63.97,102.18,114.54,96.08,257.82,157.17,383.15,238.43,56.85,36.86,207.81,129.19,129.87,209.75-52.43,54.19-146.88,71.29-217.33,87.5-39.33,9.05-78.67,18.08-117.41,29.35-81.02,23.57-160.78,57.01-225.39,111.25-101,84.8-137.74,203.95-142.37,329.84l-4.91.3c4.68-126.03,41.46-245.44,142.66-330.28,64.89-54.4,145.07-87.79,226.53-111.01,39.21-11.18,79.03-19.91,118.84-28.73,71.43-15.82,167.15-32.66,220.86-86.78,79.68-80.3-72.55-173.25-129.46-210.03-126.27-81.61-270.44-142.78-386.25-238.86-31.73-26.33-65.86-58.19-64.62-101.67.76-26.6,12.21-51.59,29.2-72.12,43.62-52.73,110.9-81.63,155.5-134.29,81.01-95.67,75.13-223.62,58.09-338.97Z"/><path class="cls-1" d="M410.35,35.02l2.17-.13c14.3,114.13,11.56,232.44-67.64,325.18-43.24,50.63-104.89,83.95-145.88,136.19-17.4,22.18-30.18,48.8-31.8,76.97-2.56,44.74,30.21,78.67,62.34,106.75,103.82,90.74,235.38,149.61,351.35,223.87,56.73,36.32,213.33,127.45,146.25,211.91-44.91,56.55-135.25,73.88-200.85,92.95-32.1,9.33-64.1,19.3-95.84,29.71-79.95,26.21-158.9,59.61-223.76,113.26-103.69,85.78-142,206.18-146.3,334.77-2.36.14-3.52.21-5.82.35,4.35-127.57,42.08-247.36,144.68-332.81,64.53-53.74,143.37-87.21,223.32-112.86,30.71-9.85,61.73-19.1,92.77-27.91,68.6-19.48,157.12-35.12,207.95-89.41,76.32-81.52-71.13-172.53-128.82-210.22-122.35-79.94-264.66-140.53-373.29-238.74-31.11-28.13-60.16-60.98-55.96-104.66,2.67-27.76,15.53-53.16,33.27-74.74,41.94-51.04,103.19-83.55,146.13-134.13,78.97-93,80.36-212.39,65.72-326.3Z"/><path class="cls-1" d="M421.35,34.35l1.62-.1c11.52,105.62,5.5,211.48-61.47,300.03-41.89,55.39-102.65,93.97-144.26,149.24-17.79,23.63-31.24,50.93-34.46,80.31-4.88,44.61,22.34,78.65,53.87,108.21,97.29,91.2,226.66,148.43,338.9,219.77,56.56,35.95,209.3,123.62,145.98,207.96-41.99,55.93-123.83,69.99-185.5,93.54-29.24,11.16-58.14,23.72-87.21,35.37-79.36,31.79-157.62,69.25-220.43,127.35-94.76,87.65-128.8,204.42-132.39,328.27l-6.55.4c3.66-122.7,37.19-238.67,130.93-325.7,62.49-58.02,140.63-95.41,220.04-126.33,29.52-11.49,59.05-23.49,88.83-34.29,62.86-22.8,141.8-37.27,188.03-89.45,72.46-81.77-71.39-169.64-128.95-207.04-112.96-73.41-240.88-130.88-342.81-219.23-32.66-28.31-67.42-63.51-66.5-108.89.59-28.96,13.39-57.75,29.95-81.35,38.54-54.93,98.9-92.03,141.73-143.66,75.49-91.02,83.17-202.34,70.63-314.39Z"/><path class="cls-1" d="M429.52,33.86c.49-.03.73-.05,1.2-.07,9.76,102.26-.64,200.85-62.65,287.05-40.75,56.65-98.93,100.02-136.88,158.54-16.58,25.56-29.43,55.18-31.45,85.63-2.99,45.01,25.39,79.62,57.47,109.17,94.7,87.24,219.09,141.65,327.58,210.37,52.45,33.22,181.7,106.58,140.21,185.16-30.56,57.86-108.45,70.8-162.25,96.68-27.61,13.28-54.02,29.36-81.59,42.92-76.55,37.64-152.77,76.97-214.26,136.33-94.52,91.24-128.66,209.83-131.66,336.27-2.86.17-4.28.26-7.11.43,3.1-126.1,37.34-244.45,132.14-335.01,61.84-59.08,138.5-97.97,215.65-134.54,27.94-13.24,54.94-28.71,82.97-41.63,55.17-25.43,133.98-38.77,165.99-96.8,43.45-78.75-87.3-153.61-139.77-187.02-109.37-69.65-234.75-124.63-330.53-212.52-32.19-29.54-61.1-64.23-58.05-109.39,2.05-30.31,15.03-59.7,31.79-84.97,38.53-58.09,97.35-100.62,138.42-157.03,63.1-86.66,72.86-186.56,62.8-289.58Z"/><path class="cls-1" d="M435.6,33.49l.91-.06c8.3,99.3-6.05,191.78-63.18,276.23-39.62,58.56-94.88,107.26-128.19,169.82-12.91,24.24-22.58,50.84-25.25,78.12-4.36,44.56,18.07,78.44,49.6,109.05,88.4,85.84,210.23,137.02,314.95,200.95,51.35,31.35,178.3,99.76,141.21,176.72-26.77,55.56-96.88,65.51-144.4,95.32-25.58,16.05-48.94,35.67-75.15,51.38-69.3,41.53-139.15,82.45-196.17,139.82-95.45,96.03-130.4,217.77-132.84,348.52-3.01.18-4.51.27-7.5.46,2.56-130.3,37.56-251.69,133.32-346.9,57.34-57.02,127.54-97.41,197.46-137.86,26.5-15.33,50.5-34.33,76.47-49.94,48.85-29.38,120.18-39.65,148.2-95.5,38.85-77.43-89.02-147.13-140.69-178.91-105.62-64.96-228.46-116.83-317.92-203.44-31.64-30.63-54.6-64.65-50.1-109.36,2.73-27.14,12.55-53.54,25.66-77.52,33.94-62.13,90.01-109.97,130.01-168.19,58.34-84.9,72.18-178.57,63.62-278.7Z"/><path class="cls-1" d="M440.31,33.2l.74-.05c6.99,95.13-10.23,181.85-61.07,264.13-35.23,57.03-81.72,107.68-111.5,167.86-32.06,64.79-41.88,132.05,10.49,188.93,77.93,84.64,197.09,132.42,296.12,189,51.7,29.54,176.41,88.91,156.86,164.88-4.04,15.7-15.44,29.09-27.15,40.04-11.71,10.45-24.39,19.64-38.05,27.56-18.18,10.64-36.99,20.12-56.43,28.42-23.54,18.51-42.76,42.24-67.41,60.49-65.52,48.5-134.21,92.12-190.12,151.73-95.01,101.3-130.37,225.9-132.26,360.54-3.09.19-4.63.28-7.72.47,1.98-134.11,37.36-258.31,132.69-358.71,56.2-59.19,125.14-102.23,191.38-149.57,24.91-17.8,44.86-40.84,68.76-58.94,19.92-8.29,39.22-17.77,57.9-28.43,14.03-7.94,27.1-17.16,39.21-27.66,12.06-10.96,23.97-24.43,28.36-40.33,21.2-76.64-104.56-137.35-156.53-167.33-99.96-57.65-220.17-106.18-299.11-191.67-52.58-56.94-43.27-123.81-10.3-188.51,30.44-59.75,77.73-109.63,113.4-166.3,52.09-82.77,68.94-170.51,61.72-266.54Z"/><path class="cls-1" d="M444.39,32.95l.71-.04c5.79,90.64-13.65,172.38-57.91,252.32-33.01,59.63-75.06,115.03-100.62,178.36-27.29,67.61-36.39,136.5,18.05,193.05,75.99,78.94,189.42,121.98,284.8,173.96,49.53,26.99,166.42,80.36,146.43,152.72-11.54,41.77-57.71,57.64-89.09,81.13-25.17,18.84-42.13,49.94-65.91,71.46-61.21,55.4-129.18,102.62-184.04,164.62-94.58,106.89-130.65,234.6-132.09,373.51l-7.77.47c1.51-138.33,37.55-265.61,132.43-371.58,55.14-61.59,123.4-107.91,185.27-162.36,24.02-21.14,41.94-51.57,67.44-69.94,32.42-23.35,79.85-39.31,92.47-81.5,21.83-73-96.02-127.75-145.82-155.21-96.32-53.11-210.79-96.96-287.81-176.77-54.68-56.67-46.1-125.09-17.88-192.74,26.23-62.9,69.15-117.55,102.65-176.74,45.54-80.47,64.71-163.12,58.7-254.7Z"/><path class="cls-1" d="M448.56,32.7l.8-.05c4.6,85.84-16.42,163.44-54.11,240.73-30.57,62.68-67.65,122.85-89.18,189.32-22.55,69.62-31.15,140.37,25.1,196.24,68.33,67.87,167.11,105.21,252.58,147.9,49.92,24.94,164.57,69.9,160.61,139.17-2.06,36.07-37.27,58.72-63.24,78.88-26.39,20.48-38.99,56.45-61.9,81.87-56.19,62.35-124.09,113.39-178.13,177.89-94.25,112.5-131.4,243.35-132.56,386.72-3.05.19-4.58.28-7.64.46,1.2-142.79,38.25-273.2,132.77-384.83,54.24-64.06,122.23-114.37,179.27-175.64,23.32-25.05,36.74-60.39,63.59-80.42,26.81-20.01,63.49-42.69,66.49-79.29,5.73-70-110.24-116.39-160.22-141.7-86.39-43.74-186.13-81.86-255.45-150.53-56.54-56.01-48.45-126.21-25.01-195.99,22.18-66.04,60.18-125.46,91.26-187.66,38.91-77.88,59.78-156.25,54.97-243.09Z"/><path class="cls-1" d="M453.58,32.39l1.02-.06c6.33,155.26-88.77,280.53-126.65,426.04-17.86,68.61-28.9,142.77,25.55,197.85,62.73,63.46,155.98,96.51,236.2,133.45,50.17,23.1,156.58,60.11,162.76,125.24,3.12,32.91-23.47,55.53-44.79,76.79-23.71,23.65-31.57,62.26-52.51,89.95-51.47,68.04-119.03,123.21-172.1,190.18-92.9,117.24-130.85,250.33-131.95,396.95l-7.35.45c1.09-146.07,38.87-278.78,131.98-395.24,53.21-66.56,120.8-121.01,173.1-188.1,21.25-27.25,29.92-65.55,54.13-88.56,22.13-21.03,50.27-43.66,48.03-77.13-4.4-65.86-112.35-104.23-162.39-127.62-81.14-37.93-175.37-71.71-239.09-135.92-54.79-55.21-44.13-128.73-25.49-197.53,39.61-146.2,136.34-269.87,129.54-426.75Z"/><path class="cls-1" d="M460.15,31.99l1.37-.08c3.19,148.91-83.21,282.22-111.64,425.92-13.75,69.5-24.68,145.96,30.97,200.36,59.95,58.61,148.18,87.23,224.45,119.7,49.9,21.24,147.92,52.86,157.02,115.47,5.12,35.21-22.32,51.38-37.07,78.69-5.97,11.05-6.12,30.16-10.86,42.49-7.51,19.53-18.39,37.79-30.33,55.05-51.25,74.05-120.21,135.02-172.9,208.24-84.2,117.02-118.45,246.94-119.74,388.51l-6.88.42c1.23-141.12,35.26-270.74,119.55-387.2,52.74-72.87,121.69-133.22,173.63-206.44,12.07-17.01,23.13-35,30.89-54.3,4.83-12.02,5.31-31.16,11.4-41.85,15.56-27.35,44.67-42.89,40.61-78.82-7.15-63.27-106.78-96.09-156.37-117.53-77.21-33.39-166.41-62.69-227.39-121.96-56.06-54.49-45.49-130.25-31.06-200.01,29.83-144.22,118.17-276.55,114.36-426.64Z"/><path class="cls-1" d="M469.03,31.45l1.85-.11c1.07,68.73-22.12,136.85-41.9,202.11-21.92,72.3-44.02,144.79-55.39,219.48-10.36,68.11-22.9,148.65,30.1,202.86,54.01,55.25,136.73,80.41,207.61,108.1,52.29,20.43,140.68,46.14,160.58,104.97,10.8,31.94-8.42,50.14-16.98,78.6-4.36,14.5-3.4,30.92-7.95,45.85-6.32,20.75-16.08,40.35-27.39,58.95-47.55,78.19-116.82,142.31-169.43,217.24-83.98,119.62-119.75,250.75-121.63,394.58-2.47.15-3.72.23-6.24.38,1.76-143.48,37.21-274.44,121.2-393.69,52.59-74.68,121.79-138.29,169.95-215.82,11.42-18.38,21.35-37.76,27.88-58.31,4.66-14.65,3.84-31.13,8.44-45.29,9.23-28.44,30.44-45.81,20.51-78.53-18.05-59.5-108.17-86.12-159.97-106.65-71.83-28.46-155.52-54.19-210.59-109.97-53.5-54.2-41.2-134.02-30.3-202.35,11.84-74.24,34.77-146.1,57.19-217.86,20.61-65.96,44.06-134.85,42.46-204.53Z"/><path class="cls-1" d="M480.94,30.73c.96-.06,1.45-.09,2.46-.15-2.88,63.54-23.9,126.77-39.55,188.15-19.22,75.38-36.98,151.31-45.87,228.56-7.77,67.53-21.13,151.18,28.52,206.47,47.42,52.82,125.21,75.34,190.52,99.1,55.27,20.11,134.29,42.07,163.89,97.08,15.02,27.9,7.31,50.7,2.98,79.72-6.02,40.38-9.87,73.66-30.17,110.79-44.47,81.33-114.35,147.78-167.32,223.74-84.36,121-122.13,252.5-125.02,397.88l-5.43.33c2.68-145.17,40.06-276.67,124.3-397.53,52.87-75.85,122.62-141.95,167.58-222.81,20.52-36.91,23.94-69.87,31.03-109.84,5.12-28.87,14.88-50.88.52-79.42-28.02-55.68-108.59-78.12-163.33-98.25-66.22-24.35-145.06-47.25-193.54-100.46-50.22-55.12-37.04-138.09-28.86-205.75,9.29-76.8,27.78-152.14,47.45-226.98,16.3-62.04,37.82-126.21,39.85-190.63Z"/><path class="cls-1" d="M496.61,29.78l3.2-.19c-23.09,137.96-64.66,271.03-76.91,411.1-5.89,67.36-20.05,154.42,25.99,211.44,41.28,51.12,112.72,72.23,173.12,93.37,58.11,20.34,129.42,41,166.9,92.46,40.5,55.59,26.02,140.18-2.98,197.59-42.12,83.38-112.97,151.02-166.75,227.12-85.42,120.89-125.73,251.67-130.12,397.72l-4.45.27c4.09-146,43.91-277,129.09-398.03,53.6-76.15,124.25-143.68,166.72-226.78,28.41-55.6,45.43-141.41,7.16-196.35-36.25-52.05-108.75-72.76-166.39-93.01-61.23-21.51-133.84-42.77-176.21-94.11-46.72-56.62-32.68-143.15-26.52-210.46,7.27-79.36,21.9-157.93,39.21-235.78,13.01-58.51,30.7-116.98,38.92-176.37Z"/><path class="cls-1" d="M516.35,28.58c1.38-.08,2.05-.12,3.35-.2-41.2,129.97-60.33,270.96-70.35,406.02-5.09,68.59-19.81,155.08,24.67,214.34,37.92,50.53,104.49,72.7,162.2,94.13,59.08,21.94,126.06,44.05,166.86,93.85,48,58.58,40.82,138.04,9.44,202.57-41.09,84.5-111.91,153.17-166.37,229.36-84.82,118.67-127.94,246.31-134.6,390.39l-3.89.24c6.21-144.85,48.92-273.39,134.36-392.63,54.48-76.02,125.62-144.35,166.77-228.68,31.28-64.09,38.15-143.99-9.61-202.14-40.89-49.79-108.32-71.41-167.56-92.88-57.83-20.96-124.83-42.63-162.76-93.17-44.27-58.99-29.59-146.24-24.45-214.51,10.23-135.81,31.54-275.85,71.94-406.69Z"/><path class="cls-1" d="M533.12,27.56c.99-.06,1.47-.09,2.4-.14-17.66,52.25-24.71,108.92-32.62,163.1-11.53,79.01-19.71,158.53-24.47,238.18-4.2,70.27-18.47,152.94,25.96,213.97,37.12,50.99,100.43,76.5,157,101.4,57.62,25.36,121.39,50.79,160.93,101.17,47.91,61.04,40.03,138.29,8.55,205.02-40.04,84.88-108.36,154.96-162.13,231.52-80.64,114.82-125.13,237.02-133.75,375.83l-4.27.26c8.35-139.83,52.7-263.05,134.16-378.61,53.97-76.56,122.8-146.46,163.1-231.34,31.52-66.38,39.39-143.98-8.7-204.59-39.87-50.24-104.26-74.96-162.21-99.67-56.84-24.24-120.78-49.05-158.15-99.92-44.59-60.7-30.14-143.98-25.72-213.97,5.04-79.86,13.83-159.56,26.04-238.71,8.4-54.42,16.17-111,33.87-163.51Z"/><path class="cls-1" d="M544.83,26.85l1.61-.1c-16.34,50.95-18.9,107.64-23.63,160.4-7.01,78.11-11.21,156.46-13.82,234.8-2.39,71.65-15.2,151.42,27.37,214.54,35.08,52.02,94.29,82.15,148.78,111.35,55.24,29.6,114.94,59.6,151.99,111.15,45.67,63.54,38.57,138.94,7.76,207.45-37.93,84.35-102.81,155.08-154.89,231.16-75.42,110.18-119.91,226.2-129.57,358.47l-4.59.28c9.54-133.5,54.12-250.65,130.52-361.7,52.44-76.22,117.99-146.89,156.36-231.39,30.97-68.22,38.3-143.91-7.89-207.02-37.55-51.3-98.03-80.43-153.76-109.22-54.92-28.37-114.91-57.63-150.42-109.43-43.01-62.74-29.88-142.95-27.11-214.38,3.04-78.58,8.01-157.15,15.88-235.44,5.34-53.03,8.76-109.75,25.43-160.92Z"/><path class="cls-1" d="M552.41,26.38l.97-.06c-13.51,49.97-10.94,106-11.92,157.14-1.47,76.97-.99,153.96-.72,230.93.26,72.67-10.37,150.53,28.86,215.85,32.2,53.61,86.61,89.05,138.1,123.41,51.98,34.68,106.86,69.99,140.59,123.26,41.73,65.91,36.48,139.97,7.05,209.84-35,83.1-95.62,153.82-145.22,228.79-69.38,104.87-112.76,214.12-122.69,338.87l-4.85.29c9.94-126.13,53.58-236.6,124.07-342.45,50.08-75.2,111.5-145.97,147.07-229.33,29.72-69.66,35.35-143.91-7.17-209.42-34.36-52.93-90.13-87.26-142.74-121-52.09-33.4-107.39-67.86-140.14-121.16-39.9-64.93-28.86-143.06-28.59-215.57.28-77.21.66-154.46,3.17-231.65,1.67-51.44.05-107.62,14.15-157.74Z"/><path class="cls-1" d="M556.75,26.12l.5-.03c-9.01,49.58-1.29,103.75,1.91,153.5,4.86,75.57,10.6,151.08,14.3,226.73,3.58,73.31-4.49,150.3,30.42,217.73,28.82,55.68,77.92,96.88,125.53,137.05,47.88,40.39,97.37,81.48,127.28,136.94,36.65,67.96,33.83,141.36,6.4,212.21-31.46,81.27-87.17,151.49-133.65,224.88-62.72,99.03-104.13,201.09-113.71,317.56-2.02.12-3.03.18-5.04.31,9.68-117.98,51.49-221.32,115.41-321.41,47.07-73.7,103.68-144.03,135.8-225.66,27.83-70.71,31.09-144.17-6.51-211.8-30.6-55.05-81.08-95.09-129.73-134.44-48.35-39.11-98.41-79.28-127.85-134.56-35.72-67.07-27.19-144.15-30.14-217.37-3.06-75.87-7.85-151.65-11.54-227.48-2.44-50.03-9.16-104.48.65-154.16Z"/><path class="cls-1" d="M558.76,26h.18c-3.97,49.13,9.58,101.41,17.24,149.64,11.74,73.9,23.14,147.87,30.65,222.32,7.44,73.65,1.91,150.64,32.03,220,25.26,58.18,68.66,105.36,111.59,151.71,43.05,46.48,86.72,93.59,112.62,151.65,31,69.49,30.68,143.12,5.79,214.54-27.54,79.02-77.83,148.39-120.75,219.95-55.65,92.78-94.48,187.41-103.24,295.12l-5.17.31c8.92-109.27,48.25-205.22,105.16-299.12,43.57-71.88,94.84-141.43,123.09-220.87,25.37-71.34,26.12-144.89-5.9-214.14-26.62-57.58-71.33-103.61-115.27-149.01-43.79-45.24-88.26-91.37-114.12-149.08-30.95-69.06-25.01-145.96-31.74-219.58-6.83-74.65-17.2-148.89-27.71-223.1-6.86-48.49-19.37-101.13-14.46-150.34Z"/><path class="cls-1" d="M559.33,25.96h.02c1.79,48.83,21.13,98.82,33.45,145.74,18.89,71.96,36.2,144.39,47.8,217.87,11.68,73.94,8.42,151.2,33.66,222.47,21.64,61.08,59.25,114.27,96.87,166.86,83.08,116.17,146.71,238.82,102.37,383.67-23.43,76.54-68,144.86-107.06,214.47-48.39,86.25-84.26,173.41-91.9,272.07-2.09.13-3.14.19-5.23.32,7.85-100.26,44.26-188.73,93.93-276.14,39.75-69.95,85.35-138.47,109.5-215.45,45.55-145.18-19.45-266.09-105.22-380.59-38.58-51.51-77.21-103.64-99.49-164.19-26.1-70.93-22.46-148.15-33.38-222.03-10.87-73.63-27.13-146.33-44.76-218.65-11.49-47.14-29.82-97.54-30.56-146.43Z"/><path class="cls-1" d="M559.37,25.96h.02c7.92,48.53,32.83,96.08,49.92,141.95,26.02,69.83,49.37,140.76,65.19,213.52,16.18,74.39,14.64,151.66,35.3,224.96,18.13,64.34,49.96,123.32,81.89,181.94,67.94,124.75,123.67,257.43,86.08,401.03-42.03,160.6-161.21,287.8-173.43,457.94-2.09.13-3.14.19-5.24.32,6.65-91.17,39.89-172.25,82.33-253.02,35.76-68.07,75.51-135.48,95.58-209.91,38.75-143.73-18.39-274.67-88.94-398.01-32.94-57.59-65.78-115.57-84.52-179.32-21.44-72.93-19.64-150.24-35.02-224.53-15.08-72.86-37.36-144.05-62.14-214.27-16.25-46.03-40.2-94.02-47.03-142.6Z"/><path class="cls-1" d="M559.78,25.94h.18c13.91,48.17,44.16,93.42,66.04,138.42,32.86,67.6,62.22,137.09,82.27,209.42,20.8,75.04,20.38,151.78,36.92,227.3,14.85,67.78,40.98,132.25,67.22,196.42,53.95,131.91,101.27,274.16,70.1,417.73-32.53,149.81-138.33,274.66-148.56,430.3l-5.17.31c10.55-158.08,118.73-283.39,152.83-435.04,32.26-143.45-16.54-284.17-72.86-414.87-27.25-63.23-54.36-126.78-69.75-193.94-17.22-75.12-16.65-151.99-36.64-226.91-19.31-72.38-47.63-142.12-79.31-210.11-21.04-45.14-50.36-90.78-63.26-139.02Z"/><path class="cls-1" d="M561.47,25.83l.5-.03c19.33,47.87,54.69,91.11,81.19,135.36,39.17,65.4,74.36,133.55,98.47,205.71,25.29,75.72,25.54,151.57,38.51,229.28,11.9,71.26,32.71,140.56,53.42,209.74,41.42,138.39,80.31,288.1,54.93,433.21-24.47,139.89-116.68,261.84-125.52,404.65l-5.04.31c9.02-144.92,103.62-267.41,129.39-408.96,26.35-144.75-14.03-293.3-57.51-430.6-21.65-68.35-43.37-136.85-55.76-207.51-13.55-77.34-13.71-153.35-38.24-228.96-23.41-72.16-57.6-140.54-95.71-206.32-25.7-44.37-60.19-87.94-78.62-135.86Z"/><path class="cls-1" d="M565.33,25.6l.97-.06c23.65,47.77,64.02,89.36,94.76,132.88,44.77,63.39,85.42,130.31,113.24,202.54,29.33,76.14,30,151.2,40.04,230.75,9.4,74.5,25.39,147.94,41.02,221.36,30.71,144.25,61.49,299.1,41.13,446.92-9.35,67.87-31.74,132.86-55.43,197.11-21.97,59.58-47.56,120.97-50.03,184.93-1.93.12-2.9.18-4.85.3,2.42-65.26,28.54-127.71,51.42-188.3,24.29-64.33,47.51-129.36,57.3-197.45,21.17-147.28-10.98-301.4-43.43-444.66-16.48-72.73-33.27-145.51-43.08-219.46-10.51-79.27-11.11-154.44-39.78-230.54-27.2-72.2-66.93-139.33-110.77-203.05-30.03-43.65-69.52-85.51-92.52-133.27Z"/><path class="cls-1" d="M572.28,25.18l1.61-.1c25.5,48.16,72.06,88.75,106.13,131.18,49.53,61.68,95.05,127.53,126.04,200.08,32.48,76.05,33.64,150.85,41.5,231.5,7.52,77.24,19.34,153.97,30.6,230.74,11.25,76.7,21.95,153.57,27.26,230.93,5.14,74.78,10.08,152.64,1.97,227.36-7.29,67.07-25.48,132.13-46.07,196.38-17.39,54.27-40.1,109.91-43.49,167.15-1.83.11-2.75.17-4.6.28,3.14-58.35,26.35-114.95,44.45-170.1,21.08-64.21,39.96-129.19,47.55-196.34,8.43-74.53,3.41-152.44-2.1-227.02-5.68-76.93-17.1-153.28-29.05-229.47-11.97-76.25-24.47-152.47-32.27-229.27-8.18-80.53-9.24-155.32-41.25-231.43-30.48-72.48-75.2-138.5-123.96-200.45-33.76-42.9-78.2-83.45-104.32-131.42Z"/><path class="cls-1" d="M583.2,24.51c.93-.06,1.41-.09,2.4-.15,26.21,48.88,78.09,88.97,114.68,130.41,53.3,60.37,102.92,125.38,136.29,198.45,34.38,75.26,36.28,150.65,42.85,231.37,6.45,79.21,14.92,158.23,22.69,237.32,15.06,153.17,33.69,312.93,19.75,466.81-6.08,67.17-20.92,133.1-39.22,198.08-14.06,49.96-33.8,100.39-39.74,152.07l-4.28.26c5.35-52.57,25.61-103.88,40.17-154.5,18.64-64.79,33.99-130.5,40.22-197.58,14.24-153.43-5.11-312.96-21.22-465.55-8.32-78.76-17.31-157.46-23.88-236.39-6.72-80.79-8.47-156.02-42.62-231.47-33.03-72.96-81.99-138.1-134.7-198.67-36.23-41.63-87.16-81.74-113.41-130.47Z"/><path class="cls-1" d="M599.01,23.55l3.35-.2c24.32,49.89,82.11,90.65,119.8,130.74,55.98,59.55,108.71,124.03,143.46,197.81,34.72,73.71,37.73,150.59,44.09,230.17,6.4,80.15,12.52,160.33,17.86,240.56,10.36,155.59,26.59,316.09,13.25,471.9-10.15,118.56-47.19,228.08-74.84,342.95l-3.89.24c24.47-115.74,64.88-224.78,75.05-343.72,13.3-155.56-3.13-316.01-14.15-471.28-5.69-80.12-12.14-160.19-18.46-240.26-6.3-79.87-9.1-156.43-43.88-230.46-34.59-73.65-86.86-138.19-142.45-197.85-37.63-40.38-94.28-80.88-119.17-130.59Z"/><path class="cls-1" d="M620.05,22.27l4.03-.25c26.17,50.82,78.03,92.48,115.87,134.92,53.63,60.15,104.02,124.08,140.48,195.69,36.99,72.64,48,146.61,57.25,226.25,9.18,78.94,16.33,158.12,21.54,237.41,10.3,156.74,19.17,317.86-.2,474.31-8.57,69.23-22.72,137.64-39.11,205.51-11.09,45.91-27.2,92.81-31.21,139.97l-4.32.26c6.51-47.05,22.26-93.29,33.54-139.41,16.57-67.71,30.3-136.11,38.3-205.28,18.08-156.32,7.51-317.32-2.52-473.81-5.1-79.52-11.86-158.93-20.37-238.16-8.54-79.54-17.76-154.3-54.22-227.08-36.19-72.23-87.36-136.29-141.79-196.28-38-41.88-91.56-83.31-117.29-134.06Z"/><path class="cls-1" d="M643.97,20.82l4.44-.27c26.75,50.51,69.29,94.06,104.63,138.89,47.91,60.78,93.18,123.75,130.15,191.5,75.75,138.85,90.63,300.44,102.95,455.35,12.63,158.85,12.61,320.42-12.9,478.24-11.22,69.42-27.02,137.97-41.6,206.78-9.36,44.18-26.44,97.93-15.57,143.13l-5.13.31c-8.28-45.78,8.89-98.11,18.6-142.57,14.98-68.65,30.57-137.16,41.41-206.56,24.59-157.5,23.12-319.02,10.99-477.42-11.82-154.28-23.72-318.04-98.67-456.74-37-68.47-83.24-131.63-132.31-192.33-35.96-44.49-80.13-87.67-106.98-138.3Z"/><path class="cls-1" d="M670.01,19.23l4.77-.29c57.66,114.11,140.85,216.17,204,327.65,18.38,32.45,35.96,65.33,52.57,98.67,18.23,36.57,26.55,78.48,35.97,117.97,18.16,76.15,31.09,153.5,38.89,231.33,16.22,161.77,8.34,323.68-21.42,483.69-12.92,69.45-29.38,138.33-40.88,208.02-7.2,43.62-21.54,105.58,3.61,146.24-2.34.14-3.5.21-5.79.35-22.84-41.38-7.57-102.29,0-145.7,12.12-69.55,28.53-138.34,41.21-207.8,29.14-159.57,35.7-321.42,20.19-482.64-7.49-77.88-19.82-155.34-37.1-231.71-8.95-39.57-16.66-81.59-34.29-118.41-16.09-33.59-33.4-66.61-51.71-99.1-36.23-64.27-76.6-126.15-118.33-187.14-31.53-46.09-66.26-91.46-91.68-141.15Z"/><path class="cls-1" d="M697.8,17.54l5.04-.31c49.75,108.72,103.9,215.21,163.41,319.19,39.63,69.25,78.27,133.03,102.49,209.22,23.52,73.96,40.37,149.93,50.61,226.73,21.83,163.67,8.87,325.24-22.89,486.92-13.63,69.4-29.84,138.67-38.45,208.87-6.13,50.02-15.87,122.3,24.28,162.24-2.54.15-3.81.23-6.32.38-37.97-40.53-26.58-112.5-20.06-161.66,9.3-70.1,25.57-139.28,39.07-208.7,31.34-161.14,43.17-322.61,22.27-485.67-9.84-76.79-26-152.84-48.57-227.02-11.98-39.39-24.11-79.08-45.07-114.88-18.54-31.66-36.95-63.39-55.17-95.22-60.08-104.92-119.55-210.69-170.64-320.11Z"/><path class="cls-1" d="M726.92,15.77l5.23-.32c18.17,45.91,29.12,94.21,44.19,141.11,18.76,58.4,42.87,114.81,72.86,168.6,38.15,68.42,84.63,128.77,114.29,201.66,31.49,77.38,53.8,158.28,66.68,240.59,25.94,165.77,5.72,326.18-27.37,489.48-13.89,68.54-29.08,137.76-33.03,207.65-3.15,55.75-1.32,127.18,49.8,163.6-2.69.16-4.03.25-6.7.41-49.22-36.94-48.93-108.48-45.2-163.02,4.77-69.82,20.15-138.91,34.01-207.46,32.91-162.7,52.02-323.01,27.09-488.14-12.42-82.23-33.92-163.17-64.35-240.8-28.73-73.31-73.96-134.18-112.31-202.57-55.87-99.62-82.61-206.32-125.19-310.8Z"/><path class="cls-1" d="M756.96,13.95l5.35-.33c14.71,44.87,13.85,92.55,18.88,138.96,6.54,60.32,23.71,117.6,53.3,171.09,37.33,67.49,89.22,123.96,123.36,193.66,36.56,74.66,62.93,153.96,78.31,235.34,15.47,81.86,19.77,165.59,13.82,248.66-6.22,86.91-26.53,171.51-43.46,256.86-21.12,106.47-70.16,299.83,52.04,367.59l-6.94.42c-118.52-68.41-66.72-262.55-45.93-366.78,33.73-169.12,61.1-332.32,29.63-504.12-14.89-81.26-40.42-160.59-75.93-235.52-33.24-70.13-83.88-127.14-121.39-194.54-30.05-53.98-48.79-111.72-57.73-172.43-6.83-46.37-8.09-94.06-23.3-138.86Z"/><path class="cls-1" d="M787.54,12.09l5.4-.33c11.76,45.59-.67,91.53-6.66,136.99-7.32,55.63-1.59,108.69,23.72,159.56,17.42,35,41.61,66.37,67.83,95.54,28.22,31.38,51.1,67.04,72,103.41,41.34,71.97,71.79,149.73,89.74,230.35,18.09,81.25,23.41,164.95,17.47,247.91-6.25,87.37-28.5,171.84-45.09,257.65-24.67,127.58-55.34,307.66,86.52,380.18-2.82.17-4.23.26-7.04.43-138.56-73.11-104.4-254.36-80.05-379.33,16.67-85.54,38.45-169.86,44.62-256.97,5.85-82.71.69-166.12-16.88-247.21-17.44-80.49-47.03-158.29-87.37-230.53-20.33-36.4-42.53-72.28-70.27-103.75-26.02-29.52-50-61.12-67.67-96.14-25.73-51.01-33.37-104.59-28.39-160.87,4.03-45.55,14.35-91.68,2.15-136.87Z"/><path class="cls-1" d="M818.24,10.22l5.38-.33c9.87,51.54-18.08,98.54-35.52,145.38-18.99,51.01-21.89,101.01,2.74,150.78,17.28,34.93,43.82,63.7,71.18,91.38,29.86,30.2,55.51,64.57,78.77,99.79,45.74,69.26,80.16,145.41,100.64,225.35,22.37,87.29,27.89,178.08,19.46,267.65-8.08,85.82-32.69,168.61-47.72,253.32-25.07,141.25-30.65,309.53,125.28,377.36-2.8.17-4.2.26-7.01.43-153.23-68.37-143.57-237.95-118.69-376.46,15.17-84.47,39.34-167.13,47.31-252.74,8.31-89.31,2.91-179.8-18.9-266.94-19.98-79.81-53.56-156.03-98.36-225.59-22.7-35.25-47.71-69.83-77.08-100.14-27.17-28.03-53.42-57.02-70.91-91.95-24.87-49.66-24.1-100.14-7.2-152.04,15.37-47.17,40.91-94.41,30.61-145.27Z"/><path class="cls-1" d="M848.66,8.37l5.29-.32c14.11,106.26-132.41,170.05-89.25,281.9,12.61,32.68,37.25,60.34,62.69,84.27,31.95,30.06,62.41,59.99,89.74,94.23,55.06,68.98,97.74,147.1,123.21,230.99,25.71,84.69,33.47,173.73,26.53,261.73-7.27,92.2-35.94,180.04-51.21,270.92-11.63,69.25-18.11,142.29-1.35,211.2,21,86.37,79.64,143.28,163.46,175.23-2.72.17-4.09.25-6.83.42-82.5-32.11-138.7-89.29-158.35-174.55-15.9-68.96-8.94-141.8,2.8-210.92,15.4-90.62,43.55-178.35,50.71-270.31,6.83-87.79-.8-176.59-25.98-261.19-24.93-83.76-66.71-162.02-120.81-231.39-46.76-59.96-122.48-107.82-150.79-179.43-43.86-110.96,95.12-177.36,80.13-282.78Z"/><path class="cls-1" d="M878.41,6.56l5.13-.31c9.62,112.67-181.53,163.4-138.76,280.63,11.63,31.89,37.92,57.94,63.52,79.76,38.26,32.61,75.23,64.86,108.13,102.82,57.21,66.02,102.04,141.95,128.45,224.57,26.7,83.51,34.04,171.81,26.2,258.85-8.22,91.24-38.96,177.58-53.59,267.65-11.87,73.08-15.95,150.87,7.83,222.08,29.87,89.45,101.34,143.17,190.28,173.6l-6.51.4c-87.67-30.5-156.89-84.41-185.39-172.9-22.95-71.27-18.35-148.85-6.41-221.74,14.71-89.83,44.9-176.1,52.96-267.11,7.7-86.88.41-174.98-25.83-258.45-25.95-82.53-69.96-158.65-126.34-225.08-32.31-38.07-68.63-70.6-106.41-103.32-25.53-22.11-51.44-48.32-63.33-80.21-43.5-116.64,140.38-169.62,130.05-281.24Z"/><path class="cls-1" d="M907.08,4.82l4.9-.3c3.51,66.65-67.58,112.03-113.59,149.93-39.22,32.31-91.62,75.2-71.57,131.11,11.22,31.3,39.62,55.92,65.47,75.92,40.08,30.99,79.52,61.03,114.93,97.24,60.33,61.69,109.05,134.02,138.46,214.46,31.75,86.82,39.85,180,30.24,271.49-9.48,90.24-42.47,174.98-56.95,264.18-11.73,72.27-13.64,148.76,11.41,218.59,35.6,99.27,121.25,155.43,220.76,186.62-2.4.15-3.61.22-6.04.37-98.33-31.23-181.59-87.52-215.99-185.84-24.42-69.81-22.01-146.2-10.29-218.25,14.47-88.99,46.87-173.69,56.13-263.73,9.4-91.39,1.28-184.44-30.03-271.28-29-80.42-76.96-153.01-136.57-215.18-34.85-36.35-73.69-66.68-113.31-97.79-25.77-20.24-53.7-45.01-65.09-76.27-43.71-119.92,183.91-163.18,177.14-281.27Z"/><path class="cls-1" d="M934.26,3.17l4.59-.28c2.64,70.49-78.3,115.46-129.71,150.2-41.74,28.2-117.98,71.08-97.88,131.23,10.11,30.26,39.53,53.44,64.71,71.65,41.14,29.74,83.21,56.62,121.09,90.53,67.03,60,122.33,132.49,154.93,215.63,32.69,83.34,41.02,173.57,31.58,262.06-10.13,94.91-48.27,182.65-63.63,276.29-12.44,75.85-11.56,156.41,20.04,227.85,44.33,100.23,140.14,153.53,243.6,183.76l-5.45.33c-102.99-30.42-197.29-84.37-240.03-184.77-28.86-67.8-30.46-143.55-19.95-215.41,13.59-92.96,51.32-180.19,62.69-273.75,10.91-89.72,4.19-181.53-27.28-266.79-31.09-84.24-85.03-158.35-151.32-219.91-37.16-34.52-78.25-62.62-119.54-92.07-26.22-18.7-56.57-42.19-68.14-73.04-22.6-60.28,49.92-103.85,92.05-133.19,50.65-35.27,130.35-80.33,127.64-150.31Z"/><path class="cls-1" d="M959.56,1.63l4.22-.26c3.04,75.3-87.9,121.15-144.21,154.2-41.46,24.34-135.16,65.61-120.64,126.28,8.45,35.29,47.82,61.01,76.66,79.45,43.14,27.58,86.69,52.98,126.41,85.32,68.66,55.9,126.36,124.93,160.08,206.13,36.29,87.4,42.25,183.18,28.31,275.98-13.89,92.47-55.31,177.54-70.18,269.52-12.33,76.26-8.4,156.93,26.79,227.16,51.46,102.71,156.59,154.87,265.14,184.95l-4.7.29c-107.45-30-210.86-82.16-261.26-184.09-34.71-70.19-38.37-150.64-26.24-226.68,14.64-91.82,55.29-176.97,68.76-269.3,13.56-92.94,7.32-188.72-28.7-276.29-33.46-81.33-90.55-150.86-158.72-207.41-39.23-32.55-82.27-58.31-125.02-86.05-28.71-18.63-67.29-44.42-75.78-79.58-14.6-60.49,76.26-101.65,117.65-126.57,55.36-33.33,144.3-78.68,141.44-153.04Z"/><path class="cls-1" d="M982.56.23l3.78-.23c5.24,84.62-103.74,133.16-166.84,167-40.64,21.79-142.81,62.49-125.17,123,10.35,35.53,53.65,60.24,83.65,77.76,44.24,25.84,89.43,48.66,130.92,78.79,73.79,53.6,136.7,122.28,171.18,206.15,35.02,85.18,37.71,178.75,21.3,268.43-16.68,91.15-61.46,173.8-78.6,264.45-14.2,75.12-10.67,154.79,23.28,224.53,54.69,112.33,172.21,167.42,289.93,198.79l-3.82.23c-116.73-31.27-232.64-86.32-286.53-197.84-33.65-69.64-37.11-149.07-23.29-224.03,16.7-90.53,60.63-173.33,76.78-264.37,15.96-89.96,12.8-183.64-22.09-269.05-34.36-84.1-96.75-153.42-170.19-207.81-41.04-30.4-85.77-53.62-129.68-79.63-29.76-17.63-72.2-42.39-82.4-77.73-17.39-60.28,82.41-100.9,123.08-122.98,62.27-33.81,169.44-81.96,164.7-165.47Z"/></svg>